<svg viewBox="0 0 240 66" xmlns="http://www.w3.org/2000/svg"><style xmlns="http://www.w3.org/2000/svg"> @media (prefers-color-scheme: dark) { #svg_2 { fill: #fff; } } </style><path id="svg_1" d="m10.84.52h55.16a0 0 0 0 1 0 0v55.12a9.84 9.84 0 0 1 -9.84 9.84h-45.32a9.84 9.84 0 0 1 -9.84-9.84v-45.28a9.84 9.84 0 0 1 9.84-9.84z" fill="#ed426d"/><path id="svg_2" d="m113.84 9.28v46.12a2.36 2.36 0 0 1 -2.36 2.36h-7.39a2.38 2.38 0 0 1 -2.15-1.36l-14.11-30.25v30.43a1.18 1.18 0 0 1 -1.19 1.18h-7.09a1.18 1.18 0 0 1 -1.18-1.18v-46.12a2.36 2.36 0 0 1 2.36-2.36h7.39a2.35 2.35 0 0 1 2.14 1.36l14.12 30.25v-30.43a1.18 1.18 0 0 1 1.18-1.18h7.1a1.18 1.18 0 0 1 1.18 1.18zm39.82-1.18h-27.2a1.77 1.77 0 0 0 -1.77 1.77v46.13a1.77 1.77 0 0 0 1.77 1.77h27.2a1.18 1.18 0 0 0 1.18-1.18v-6.5a1.18 1.18 0 0 0 -1.18-1.19h-18.33v-31.9h18.33a1.18 1.18 0 0 0 1.18-1.19v-6.53a1.18 1.18 0 0 0 -1.18-1.18zm84.16 0h-30.75a1.18 1.18 0 0 0 -1.18 1.18v6.5a1.18 1.18 0 0 0 1.18 1.22h10.05v39.58a1.18 1.18 0 0 0 1.19 1.18h8.27a1.18 1.18 0 0 0 1.19-1.18v-39.58h10a1.18 1.18 0 0 0 1.23-1.22v-6.5a1.18 1.18 0 0 0 -1.18-1.18zm-98.35 20.1a1.18 1.18 0 0 0 -1.18 1.18v6.51a1.18 1.18 0 0 0 1.18 1.18h12.41a1.18 1.18 0 0 0 1.19-1.18v-6.51a1.18 1.18 0 0 0 -1.19-1.18zm60.11-20.1h-8.72a1.78 1.78 0 0 0 -1.61 1l-6.91 14.81-6.92-14.79a1.78 1.78 0 0 0 -1.6-1h-8.73a1.18 1.18 0 0 0 -1 1.74l12.32 23.09-12.36 23.05a1.18 1.18 0 0 0 1 1.74h8.73a1.78 1.78 0 0 0 1.6-1l6.92-14.82 6.91 14.82a1.78 1.78 0 0 0 1.61 1h8.72a1.18 1.18 0 0 0 1-1.74l-12.23-23.07 12.31-23.09a1.18 1.18 0 0 0 -1.04-1.74z" fill="#1a171b"/><path id="svg_3" d="m50.11 8h-8a1.27 1.27 0 0 0 -1.33 1.18v19.32h-14.21v-19.29a1.27 1.27 0 0 0 -1.33-1.21h-7.95a1.27 1.27 0 0 0 -1.29 1.21v47.44a1.27 1.27 0 0 0 1.33 1.18h8a1.27 1.27 0 0 0 1.33-1.18v-19.29h14.17v19.29a1.27 1.27 0 0 0 1.33 1.18h8a1.27 1.27 0 0 0 1.33-1.18v-47.44a1.27 1.27 0 0 0 -1.38-1.21z" fill="#000"/></svg>